<svg width="201" height="45" viewBox="0 0 201 45" fill="none" xmlns="http://www.w3.org/2000/svg">
<rect y="3.5" width="38" height="38" rx="19" fill="url(#paint0_angular_1369_1460)"/>
<circle cx="18.9999" cy="22.5" r="12.768" fill="url(#paint1_angular_1369_1460)"/>
<path d="M62.2305 36.4639C54.4375 36.4639 49.5576 31.25 49.5576 22.6035C49.5576 13.9756 54.4746 8.76172 62.2305 8.76172C68.6689 8.76172 73.5674 12.8438 73.9941 18.8369H68.5391C68.0195 15.5527 65.4961 13.4004 62.2305 13.4004C58 13.4004 55.2725 16.9443 55.2725 22.585C55.2725 28.2998 57.9629 31.8252 62.249 31.8252C65.5703 31.8252 67.9639 29.877 68.5576 26.7041H74.0127C73.3818 32.6787 68.7988 36.4639 62.2305 36.4639ZM84.5889 32.4004C86.9453 32.4004 88.8936 30.8604 88.8936 28.708V27.2607L84.7002 27.5205C82.6777 27.6689 81.5273 28.5781 81.5273 29.9883C81.5273 31.4727 82.752 32.4004 84.5889 32.4004ZM82.8076 36.3154C79.0225 36.3154 76.1465 33.8662 76.1465 30.2852C76.1465 26.667 78.9297 24.5703 83.8838 24.2734L88.8936 23.9766V22.6592C88.8936 20.8037 87.5947 19.7275 85.5537 19.7275C83.5312 19.7275 82.251 20.7295 81.9912 22.1953H77.0371C77.2412 18.3359 80.5254 15.6826 85.7949 15.6826C90.8975 15.6826 94.2188 18.3174 94.2188 22.3252V36H88.9863V32.957H88.875C87.7617 35.0723 85.2939 36.3154 82.8076 36.3154ZM97.3916 21.9541C97.3916 18.1689 100.676 15.6826 105.778 15.6826C110.77 15.6826 114.017 18.2061 114.091 22.0654H109.1C108.988 20.4697 107.708 19.4863 105.704 19.4863C103.83 19.4863 102.605 20.3398 102.605 21.6201C102.605 22.6035 103.459 23.2715 105.203 23.6797L109.007 24.4961C112.996 25.3867 114.61 26.9639 114.61 29.9326C114.61 33.8477 111.011 36.4268 105.76 36.4268C100.453 36.4268 97.1875 33.8662 96.8906 29.9883H102.179C102.438 31.6582 103.756 32.623 105.908 32.623C107.968 32.623 109.211 31.8066 109.211 30.5078C109.211 29.5059 108.543 28.9492 106.762 28.5225L103.088 27.7061C99.3213 26.8525 97.3916 24.8857 97.3916 21.9541ZM135.392 23.5127H130.363C130.048 21.416 128.656 19.9316 126.43 19.9316C123.758 19.9316 122.088 22.1953 122.088 26.0361C122.088 29.9512 123.758 32.1777 126.448 32.1777C128.619 32.1777 130.029 30.8789 130.363 28.708H135.41C135.132 33.4023 131.625 36.4268 126.393 36.4268C120.399 36.4268 116.596 32.5303 116.596 26.0361C116.596 19.6533 120.399 15.6826 126.355 15.6826C131.736 15.6826 135.15 19.0039 135.392 23.5127ZM145.708 32.4004C148.064 32.4004 150.013 30.8604 150.013 28.708V27.2607L145.819 27.5205C143.797 27.6689 142.646 28.5781 142.646 29.9883C142.646 31.4727 143.871 32.4004 145.708 32.4004ZM143.927 36.3154C140.142 36.3154 137.266 33.8662 137.266 30.2852C137.266 26.667 140.049 24.5703 145.003 24.2734L150.013 23.9766V22.6592C150.013 20.8037 148.714 19.7275 146.673 19.7275C144.65 19.7275 143.37 20.7295 143.11 22.1953H138.156C138.36 18.3359 141.645 15.6826 146.914 15.6826C152.017 15.6826 155.338 18.3174 155.338 22.3252V36H150.105V32.957H149.994C148.881 35.0723 146.413 36.3154 143.927 36.3154ZM166.229 36.3154C161.257 36.3154 158.121 32.3818 158.121 26.0176C158.121 19.709 161.275 15.7939 166.267 15.7939C169.143 15.7939 171.369 17.3154 172.334 19.5234H172.445V9.22559H177.863V36H172.52V32.5859H172.427C171.462 34.7754 169.161 36.3154 166.229 36.3154ZM168.066 20.1357C165.339 20.1357 163.669 22.418 163.669 26.0547C163.669 29.71 165.339 31.9551 168.066 31.9551C170.757 31.9551 172.482 29.6914 172.482 26.0547C172.482 22.4365 170.757 20.1357 168.066 20.1357ZM190.406 19.6904C188.031 19.6904 186.324 21.4902 186.139 23.9766H194.581C194.47 21.4346 192.818 19.6904 190.406 19.6904ZM194.655 29.9141H199.628C199.034 33.8105 195.472 36.4268 190.555 36.4268C184.432 36.4268 180.758 32.5117 180.758 26.1475C180.758 19.8018 184.469 15.6826 190.351 15.6826C196.14 15.6826 199.795 19.5977 199.795 25.6465V27.2979H186.083V27.6318C186.083 30.4707 187.883 32.4189 190.647 32.4189C192.633 32.4189 194.154 31.4355 194.655 29.9141Z" fill="url(#paint2_linear_1369_1460)"/>
<defs>
<radialGradient id="paint0_angular_1369_1460" cx="0" cy="0" r="1" gradientUnits="userSpaceOnUse" gradientTransform="translate(38 3.5) rotate(135) scale(53.7401)">
<stop stop-color="white"/>
<stop offset="1"/>
</radialGradient>
<radialGradient id="paint1_angular_1369_1460" cx="0" cy="0" r="1" gradientUnits="userSpaceOnUse" gradientTransform="translate(31.7679 9.732) rotate(135) scale(36.1134)">
<stop/>
<stop offset="1" stop-color="white"/>
</radialGradient>
<linearGradient id="paint2_linear_1369_1460" x1="124.5" y1="0" x2="124.5" y2="45" gradientUnits="userSpaceOnUse">
<stop stop-color="#E6E6E6"/>
<stop offset="1" stop-color="white"/>
</linearGradient>
</defs>
</svg>
